<?xml version="1.0" encoding="UTF-8" standalone="no"?>
<svg
   version="1.1"
   x="0px"
   y="0px"
   viewBox="0 0 98.199997 98.199997"
   enable-background="new 0 0 100 100"
   xml:space="preserve"
   id="svg8"
   sodipodi:docname="icon.svg"
   width="98.199997"
   height="98.199997"
   inkscape:version="1.1 (c68e22c387, 2021-05-23)"
   inkscape:export-filename="D:\code\ExpandedSearchInfo\icon.png"
   inkscape:export-xdpi="500.53"
   inkscape:export-ydpi="500.53"
   xmlns:inkscape="http://www.inkscape.org/namespaces/inkscape"
   xmlns:sodipodi="http://sodipodi.sourceforge.net/DTD/sodipodi-0.dtd"
   xmlns="http://www.w3.org/2000/svg"
   xmlns:svg="http://www.w3.org/2000/svg"><defs
     id="defs12" /><sodipodi:namedview
     id="namedview10"
     pagecolor="#505050"
     bordercolor="#ffffff"
     borderopacity="1"
     inkscape:pageshadow="0"
     inkscape:pageopacity="0"
     inkscape:pagecheckerboard="1"
     showgrid="false"
     inkscape:zoom="6.656"
     inkscape:cx="49.053486"
     inkscape:cy="49.654447"
     inkscape:window-width="1920"
     inkscape:window-height="1017"
     inkscape:window-x="1592"
     inkscape:window-y="32"
     inkscape:window-maximized="1"
     inkscape:current-layer="layer1" /><g
     inkscape:groupmode="layer"
     id="layer2"
     inkscape:label="Layer 2"
     transform="translate(-0.9,-0.9)"><path
       d="M 28.3,50 C 28.3,38 38,28.3 50,28.3 62,28.3 71.7,38 71.7,50 71.7,62 62,71.7 50,71.7 38,71.7 28.3,62 28.3,50 Z"
       id="path1024"
       style="fill:#1720a9;fill-opacity:1" /></g><g
     inkscape:groupmode="layer"
     id="layer1"
     inkscape:label="Layer 1"
     transform="translate(-0.9,-0.9)"><path
       d="m 35.7,50 c 0,4.2 1.8,7.9 4.6,10.5 0.4,-3.6 2.9,-6.7 6.2,-8 -1.9,-1.2 -3.1,-3.3 -3.1,-5.6 0,-3.7 3,-6.7 6.7,-6.7 3.7,0 6.7,3 6.7,6.7 0,2.4 -1.2,4.5 -3.1,5.6 3.3,1.3 5.7,4.3 6.2,8 2.8,-2.6 4.6,-6.3 4.6,-10.5 0,-7.9 -6.4,-14.3 -14.3,-14.3 -8.1,0 -14.5,6.4 -14.5,14.3 z"
       id="path1026"
       style="fill:#ffffff;fill-opacity:1" /><path
       d="m 50,77.8 c -1.5,0 -3.1,-0.2 -4.5,-0.4 v 9.2 h -4.8 c -0.5,0 -0.8,0.6 -0.5,1 l 9.2,11.2 c 0.3,0.4 0.9,0.4 1.2,0 l 9.2,-11.2 c 0.3,-0.4 0,-1 -0.5,-1 h -4.8 v -9.2 c -1.4,0.2 -3,0.4 -4.5,0.4 z"
       id="path1022"
       style="fill:#ffffff;fill-opacity:1" /><path
       d="m 30.7,82.5 -3.4,-3.4 6.5,-6.5 c -2.5,-1.8 -4.6,-3.9 -6.4,-6.4 l -6.5,6.5 -3.4,-3.4 c -0.4,-0.4 -1,-0.1 -1,0.4 l -1.4,14.4 c 0,0.5 0.4,0.9 0.8,0.8 l 14.4,-1.4 c 0.5,-0.1 0.8,-0.7 0.4,-1 z"
       id="path1020"
       style="fill:#ffffff;fill-opacity:1" /><path
       d="m 77.8,50 c 0,1.5 -0.2,3 -0.4,4.5 h 9.2 v 4.8 c 0,0.5 0.6,0.8 1,0.5 l 11.2,-9.2 c 0.4,-0.3 0.4,-0.9 0,-1.2 L 87.6,40.2 c -0.4,-0.3 -1,0 -1,0.5 v 4.8 h -9.2 c 0.2,1.5 0.4,3 0.4,4.5 z"
       id="path1018"
       style="fill:#ffffff;fill-opacity:1" /><path
       d="m 22.2,50 c 0,-1.5 0.2,-3 0.4,-4.5 h -9.2 v -4.8 c 0,-0.5 -0.6,-0.8 -1,-0.5 L 1.2,49.4 c -0.4,0.3 -0.4,0.9 0,1.2 l 11.2,9.2 c 0.4,0.3 1,0 1,-0.5 v -4.8 h 9.2 C 22.4,53 22.2,51.5 22.2,50 Z"
       id="path1016"
       style="fill:#ffffff;fill-opacity:1" /><path
       d="m 69.7,83.5 14.4,1.4 c 0.5,0 0.9,-0.4 0.8,-0.8 L 83.5,69.7 c -0.1,-0.5 -0.7,-0.7 -1,-0.4 l -3.4,3.4 -6.5,-6.5 c -1.8,2.5 -3.9,4.6 -6.4,6.4 l 6.5,6.5 -3.4,3.4 c -0.4,0.3 -0.1,0.9 0.4,1 z"
       id="path1014"
       style="fill:#ffffff;fill-opacity:1" /><path
       d="m 72.5,33.9 6.5,-6.5 3.4,3.4 c 0.4,0.4 1,0.1 1,-0.4 L 84.8,16 c 0,-0.5 -0.4,-0.9 -0.8,-0.8 l -14.4,1.4 c -0.5,0.1 -0.7,0.7 -0.4,1 l 3.4,3.4 -6.5,6.5 c 2.5,1.7 4.7,3.9 6.4,6.4 z"
       id="path1012"
       style="fill:#ffffff;fill-opacity:1" /><path
       d="m 17.5,30.7 3.4,-3.4 6.5,6.5 c 1.8,-2.5 3.9,-4.6 6.4,-6.4 l -6.5,-6.5 3.4,-3.4 c 0.4,-0.4 0.1,-1 -0.4,-1 L 15.9,15.1 c -0.5,0 -0.9,0.4 -0.8,0.8 l 1.4,14.4 c 0.1,0.5 0.7,0.8 1,0.4 z"
       id="path1010"
       style="fill:#ffffff;fill-opacity:1" /><path
       d="M 40.2,12.4 49.4,1.2 c 0.3,-0.4 0.9,-0.4 1.2,0 l 9.2,11.2 c 0.3,0.4 0,1 -0.5,1 h -4.8 v 9.2 c -1.5,-0.2 -3,-0.4 -4.5,-0.4 -1.5,0 -3.1,0.2 -4.5,0.4 v -9.2 h -4.8 c -0.5,0 -0.8,-0.6 -0.5,-1 z"
       id="path2"
       style="fill:#ffffff;fill-opacity:1" /></g></svg>
